<mxfile host="app.diagrams.net" agent="Mozilla/5.0 (Macintosh; Intel Mac OS X 10_15_7) AppleWebKit/605.1.15 (KHTML, like Gecko) Version/17.6 Safari/605.1.15" version="24.7.13">
  <diagram name="Page-1" id="PIDlNgbEtmDqfr-j_rGw">
    <mxGraphModel dx="2058" dy="687" grid="1" gridSize="10" guides="1" tooltips="1" connect="1" arrows="1" fold="1" page="1" pageScale="1" pageWidth="827" pageHeight="1169" math="0" shadow="0">
      <root>
        <mxCell id="0" />
        <mxCell id="1" parent="0" />
        <mxCell id="gagNoUTkEJOiJtqjxTt_-1" value="" style="rounded=0;whiteSpace=wrap;html=1;fillColor=#fff2cc;strokeColor=#d6b656;strokeWidth=2;" parent="1" vertex="1">
          <mxGeometry x="-54" y="115" width="935" height="650" as="geometry" />
        </mxCell>
        <mxCell id="Uvtt6A5ZdeVoc_CZ-K7U-2" value="&lt;font style=&quot;font-size: 21px;&quot;&gt;Bouilloire Electrique&lt;/font&gt;" style="shape=rect;html=1;verticalAlign=top;fontStyle=1;whiteSpace=wrap;align=center;fillColor=#dae8fc;strokeColor=#6c8ebf;strokeWidth=2;" parent="1" vertex="1">
          <mxGeometry x="170" y="200" width="480" height="480" as="geometry" />
        </mxCell>
        <mxCell id="Uvtt6A5ZdeVoc_CZ-K7U-3" value="bouillir de l&#39;eau de maniere automatique" style="shape=ellipse;html=1;strokeWidth=3;fontStyle=1;whiteSpace=wrap;align=center;perimeter=ellipsePerimeter;" parent="1" vertex="1">
          <mxGeometry x="335" y="395" width="150" height="90" as="geometry" />
        </mxCell>
        <mxCell id="Uvtt6A5ZdeVoc_CZ-K7U-4" value="ActorName" style="shape=umlActor;html=1;verticalLabelPosition=bottom;verticalAlign=top;align=center;fillColor=#ffcc99;strokeColor=#36393d;strokeWidth=3;" parent="1" vertex="1">
          <mxGeometry x="50" y="380" width="50" height="100" as="geometry" />
        </mxCell>
        <mxCell id="Uvtt6A5ZdeVoc_CZ-K7U-5" value="arreter automatiquement le chauffage" style="shape=ellipse;html=1;strokeWidth=3;fontStyle=1;whiteSpace=wrap;align=center;perimeter=ellipsePerimeter;" parent="1" vertex="1">
          <mxGeometry x="335" y="240" width="150" height="90" as="geometry" />
        </mxCell>
        <mxCell id="Uvtt6A5ZdeVoc_CZ-K7U-8" value="&amp;lt;&amp;lt;include&amp;gt;&amp;gt;" style="edgeStyle=none;html=1;endArrow=open;verticalAlign=bottom;dashed=1;labelBackgroundColor=none;rounded=0;strokeWidth=3;" parent="1" edge="1">
          <mxGeometry x="-0.3445" y="-40" width="160" relative="1" as="geometry">
            <mxPoint x="410" y="390" as="sourcePoint" />
            <mxPoint x="409.5" y="330" as="targetPoint" />
            <mxPoint as="offset" />
          </mxGeometry>
        </mxCell>
        <mxCell id="Uvtt6A5ZdeVoc_CZ-K7U-9" value="" style="edgeStyle=none;html=1;endArrow=none;verticalAlign=bottom;rounded=0;strokeWidth=3;" parent="1" source="Uvtt6A5ZdeVoc_CZ-K7U-4" edge="1">
          <mxGeometry width="160" relative="1" as="geometry">
            <mxPoint x="175" y="439.5" as="sourcePoint" />
            <mxPoint x="335" y="439.5" as="targetPoint" />
          </mxGeometry>
        </mxCell>
        <mxCell id="Uvtt6A5ZdeVoc_CZ-K7U-10" value="eau" style="ellipse;shape=cloud;whiteSpace=wrap;html=1;fillColor=#dae8fc;strokeColor=#6c8ebf;strokeWidth=3;" parent="1" vertex="1">
          <mxGeometry x="740" y="290" width="120" height="80" as="geometry" />
        </mxCell>
        <mxCell id="Uvtt6A5ZdeVoc_CZ-K7U-13" value="" style="edgeStyle=none;html=1;endArrow=none;verticalAlign=bottom;rounded=0;strokeWidth=3;entryX=0.16;entryY=0.55;entryDx=0;entryDy=0;entryPerimeter=0;exitX=1;exitY=0;exitDx=0;exitDy=0;" parent="1" source="Uvtt6A5ZdeVoc_CZ-K7U-3" target="Uvtt6A5ZdeVoc_CZ-K7U-10" edge="1">
          <mxGeometry width="160" relative="1" as="geometry">
            <mxPoint x="485" y="439.5" as="sourcePoint" />
            <mxPoint x="645" y="439.5" as="targetPoint" />
          </mxGeometry>
        </mxCell>
        <mxCell id="Uvtt6A5ZdeVoc_CZ-K7U-14" value="reseau&amp;nbsp;&lt;div style=&quot;&quot;&gt;electrique&lt;/div&gt;" style="ellipse;shape=cloud;whiteSpace=wrap;html=1;strokeWidth=3;fillColor=#dae8fc;strokeColor=#6c8ebf;" parent="1" vertex="1">
          <mxGeometry x="740" y="430" width="120" height="80" as="geometry" />
        </mxCell>
        <mxCell id="Uvtt6A5ZdeVoc_CZ-K7U-17" value="" style="edgeStyle=none;html=1;endArrow=none;verticalAlign=bottom;rounded=0;strokeWidth=3;entryX=0.16;entryY=0.55;entryDx=0;entryDy=0;entryPerimeter=0;exitX=1;exitY=0.5;exitDx=0;exitDy=0;" parent="1" source="Uvtt6A5ZdeVoc_CZ-K7U-3" target="Uvtt6A5ZdeVoc_CZ-K7U-14" edge="1">
          <mxGeometry width="160" relative="1" as="geometry">
            <mxPoint x="495" y="430" as="sourcePoint" />
            <mxPoint x="709" y="354" as="targetPoint" />
          </mxGeometry>
        </mxCell>
        <mxCell id="Uvtt6A5ZdeVoc_CZ-K7U-18" value="arreter manuellement le chauffage&lt;div&gt;{Refines = permettre l&#39;arret manuelle du chauffage}&lt;/div&gt;" style="shape=ellipse;html=1;strokeWidth=3;fontStyle=1;whiteSpace=wrap;align=center;perimeter=ellipsePerimeter;" parent="1" vertex="1">
          <mxGeometry x="315" y="530" width="190" height="110" as="geometry" />
        </mxCell>
        <mxCell id="Uvtt6A5ZdeVoc_CZ-K7U-19" value="&amp;lt;&amp;lt;extend&amp;gt;&amp;gt;" style="edgeStyle=none;html=1;endArrow=open;verticalAlign=bottom;dashed=1;labelBackgroundColor=none;rounded=0;strokeWidth=3;exitX=0.5;exitY=0;exitDx=0;exitDy=0;entryX=0.5;entryY=1;entryDx=0;entryDy=0;" parent="1" source="Uvtt6A5ZdeVoc_CZ-K7U-18" target="Uvtt6A5ZdeVoc_CZ-K7U-3" edge="1">
          <mxGeometry x="-0.5556" y="40" width="160" relative="1" as="geometry">
            <mxPoint x="400" y="390" as="sourcePoint" />
            <mxPoint x="560" y="390" as="targetPoint" />
            <mxPoint as="offset" />
          </mxGeometry>
        </mxCell>
        <mxCell id="Uvtt6A5ZdeVoc_CZ-K7U-20" value="&lt;font style=&quot;font-size: 14px;&quot;&gt;l&#39;eau apparait implicitement comme matiÃ¨re d&#39;oeuvre dans le cas, mais nous la faison apparaitre explicitement dans ce diagramme&lt;/font&gt;" style="shape=note;size=15;align=left;spacingLeft=10;html=1;whiteSpace=wrap;" parent="1" vertex="1">
          <mxGeometry x="710" y="130" width="160" height="150" as="geometry" />
        </mxCell>
        <mxCell id="gagNoUTkEJOiJtqjxTt_-2" value="&lt;font style=&quot;font-size: 16px;&quot;&gt;&lt;b&gt;uc description comportementale&lt;/b&gt;&lt;/font&gt;" style="text;html=1;align=center;verticalAlign=middle;whiteSpace=wrap;rounded=0;strokeWidth=2;fillColor=#fff2cc;strokeColor=#d6b656;" parent="1" vertex="1">
          <mxGeometry x="-54" y="115" width="275" height="30" as="geometry" />
        </mxCell>
        <mxCell id="gagNoUTkEJOiJtqjxTt_-3" value="" style="endArrow=none;dashed=1;html=1;dashPattern=1 3;strokeWidth=4;rounded=0;entryX=0;entryY=1;entryDx=0;entryDy=0;entryPerimeter=0;" parent="1" target="Uvtt6A5ZdeVoc_CZ-K7U-20" edge="1">
          <mxGeometry width="50" height="50" relative="1" as="geometry">
            <mxPoint x="640" y="360" as="sourcePoint" />
            <mxPoint x="130" y="410" as="targetPoint" />
          </mxGeometry>
        </mxCell>
      </root>
    </mxGraphModel>
  </diagram>
</mxfile>
